<mxfile host="app.diagrams.net" modified="2021-12-21T12:15:37.058Z" agent="5.0 (Windows)" etag="GVunjwerW40n02XdUcpR" version="16.0.0" type="github">
  <diagram id="OpYGp7ETaqoPvzdDC9Zq" name="Page-1">
    <mxGraphModel dx="1038" dy="536" grid="1" gridSize="10" guides="1" tooltips="1" connect="1" arrows="1" fold="1" page="1" pageScale="1" pageWidth="827" pageHeight="1169" math="0" shadow="0">
      <root>
        <mxCell id="0" />
        <mxCell id="1" parent="0" />
        <mxCell id="kh_NFyaxqY6wScd9lxbq-1" value="&lt;font style=&quot;font-size: 20px&quot;&gt;&lt;font style=&quot;font-size: 20px&quot;&gt;学校&lt;/font&gt;&lt;br&gt;&lt;/font&gt;" style="rounded=0;whiteSpace=wrap;html=1;" parent="1" vertex="1">
          <mxGeometry x="354" y="30" width="120" height="60" as="geometry" />
        </mxCell>
        <mxCell id="kh_NFyaxqY6wScd9lxbq-3" value="管理" style="rhombus;whiteSpace=wrap;html=1;fontSize=20;" parent="1" vertex="1">
          <mxGeometry x="331" y="120" width="166" height="60" as="geometry" />
        </mxCell>
        <mxCell id="kh_NFyaxqY6wScd9lxbq-6" value="1" style="text;html=1;align=center;verticalAlign=middle;resizable=0;points=[];autosize=1;strokeColor=none;fillColor=none;fontSize=20;" parent="1" vertex="1">
          <mxGeometry x="414" y="90" width="30" height="30" as="geometry" />
        </mxCell>
        <mxCell id="kh_NFyaxqY6wScd9lxbq-9" value="系" style="rounded=0;whiteSpace=wrap;html=1;fontSize=20;" parent="1" vertex="1">
          <mxGeometry x="354" y="210" width="120" height="60" as="geometry" />
        </mxCell>
        <mxCell id="kh_NFyaxqY6wScd9lxbq-10" value="n" style="text;html=1;align=center;verticalAlign=middle;resizable=0;points=[];autosize=1;strokeColor=none;fillColor=none;fontSize=20;" parent="1" vertex="1">
          <mxGeometry x="414" y="180" width="30" height="30" as="geometry" />
        </mxCell>
        <mxCell id="kh_NFyaxqY6wScd9lxbq-12" value="年龄" style="ellipse;whiteSpace=wrap;html=1;fontSize=20;" parent="1" vertex="1">
          <mxGeometry x="20" y="510" width="100" height="70" as="geometry" />
        </mxCell>
        <mxCell id="kh_NFyaxqY6wScd9lxbq-13" value="学号" style="ellipse;whiteSpace=wrap;html=1;fontSize=20;" parent="1" vertex="1">
          <mxGeometry x="20" y="430" width="100" height="70" as="geometry" />
        </mxCell>
        <mxCell id="kh_NFyaxqY6wScd9lxbq-14" value="性别" style="ellipse;whiteSpace=wrap;html=1;fontSize=20;" parent="1" vertex="1">
          <mxGeometry x="20" y="350" width="100" height="70" as="geometry" />
        </mxCell>
        <mxCell id="kh_NFyaxqY6wScd9lxbq-15" value="姓名" style="ellipse;whiteSpace=wrap;html=1;fontSize=20;" parent="1" vertex="1">
          <mxGeometry x="20" y="270" width="100" height="70" as="geometry" />
        </mxCell>
        <mxCell id="kh_NFyaxqY6wScd9lxbq-16" value="学生" style="rounded=0;whiteSpace=wrap;html=1;fontSize=20;" parent="1" vertex="1">
          <mxGeometry x="190" y="420" width="120" height="60" as="geometry" />
        </mxCell>
        <mxCell id="kh_NFyaxqY6wScd9lxbq-17" value="" style="endArrow=none;html=1;rounded=0;fontSize=20;entryX=1;entryY=0.5;entryDx=0;entryDy=0;exitX=0;exitY=0.25;exitDx=0;exitDy=0;" parent="1" source="kh_NFyaxqY6wScd9lxbq-16" target="kh_NFyaxqY6wScd9lxbq-15" edge="1">
          <mxGeometry width="50" height="50" relative="1" as="geometry">
            <mxPoint x="100" y="370" as="sourcePoint" />
            <mxPoint x="150" y="320" as="targetPoint" />
            <Array as="points" />
          </mxGeometry>
        </mxCell>
        <mxCell id="kh_NFyaxqY6wScd9lxbq-18" value="" style="endArrow=none;html=1;rounded=0;fontSize=20;exitX=1;exitY=0.5;exitDx=0;exitDy=0;entryX=0;entryY=0.25;entryDx=0;entryDy=0;" parent="1" source="kh_NFyaxqY6wScd9lxbq-14" target="kh_NFyaxqY6wScd9lxbq-16" edge="1">
          <mxGeometry width="50" height="50" relative="1" as="geometry">
            <mxPoint x="100" y="370" as="sourcePoint" />
            <mxPoint x="200" y="340" as="targetPoint" />
          </mxGeometry>
        </mxCell>
        <mxCell id="kh_NFyaxqY6wScd9lxbq-19" value="" style="endArrow=none;html=1;rounded=0;fontSize=20;entryX=0;entryY=0.25;entryDx=0;entryDy=0;exitX=1;exitY=0.5;exitDx=0;exitDy=0;" parent="1" source="kh_NFyaxqY6wScd9lxbq-13" target="kh_NFyaxqY6wScd9lxbq-16" edge="1">
          <mxGeometry width="50" height="50" relative="1" as="geometry">
            <mxPoint x="100" y="370" as="sourcePoint" />
            <mxPoint x="150" y="320" as="targetPoint" />
          </mxGeometry>
        </mxCell>
        <mxCell id="kh_NFyaxqY6wScd9lxbq-20" value="" style="endArrow=none;html=1;rounded=0;fontSize=20;entryX=0;entryY=0.25;entryDx=0;entryDy=0;exitX=1;exitY=0.5;exitDx=0;exitDy=0;" parent="1" source="kh_NFyaxqY6wScd9lxbq-12" target="kh_NFyaxqY6wScd9lxbq-16" edge="1">
          <mxGeometry width="50" height="50" relative="1" as="geometry">
            <mxPoint x="100" y="470" as="sourcePoint" />
            <mxPoint x="150" y="420" as="targetPoint" />
          </mxGeometry>
        </mxCell>
        <mxCell id="kh_NFyaxqY6wScd9lxbq-22" value="管理" style="rhombus;whiteSpace=wrap;html=1;fontSize=20;" parent="1" vertex="1">
          <mxGeometry x="200" y="290" width="166" height="60" as="geometry" />
        </mxCell>
        <mxCell id="kh_NFyaxqY6wScd9lxbq-23" value="管理" style="rhombus;whiteSpace=wrap;html=1;fontSize=20;" parent="1" vertex="1">
          <mxGeometry x="480" y="290" width="166" height="60" as="geometry" />
        </mxCell>
        <mxCell id="kh_NFyaxqY6wScd9lxbq-25" value="姓名" style="ellipse;whiteSpace=wrap;html=1;fontSize=20;" parent="1" vertex="1">
          <mxGeometry x="727" y="270" width="100" height="70" as="geometry" />
        </mxCell>
        <mxCell id="kh_NFyaxqY6wScd9lxbq-27" value="" style="endArrow=none;html=1;rounded=0;fontSize=20;entryX=0.5;entryY=1;entryDx=0;entryDy=0;exitX=0.5;exitY=0;exitDx=0;exitDy=0;" parent="1" source="kh_NFyaxqY6wScd9lxbq-22" target="kh_NFyaxqY6wScd9lxbq-9" edge="1">
          <mxGeometry width="50" height="50" relative="1" as="geometry">
            <mxPoint x="340" y="400" as="sourcePoint" />
            <mxPoint x="390" y="350" as="targetPoint" />
          </mxGeometry>
        </mxCell>
        <mxCell id="kh_NFyaxqY6wScd9lxbq-28" value="" style="endArrow=none;html=1;rounded=0;fontSize=20;exitX=0.5;exitY=0;exitDx=0;exitDy=0;" parent="1" source="kh_NFyaxqY6wScd9lxbq-23" edge="1">
          <mxGeometry width="50" height="50" relative="1" as="geometry">
            <mxPoint x="340" y="400" as="sourcePoint" />
            <mxPoint x="410" y="270" as="targetPoint" />
          </mxGeometry>
        </mxCell>
        <mxCell id="kh_NFyaxqY6wScd9lxbq-33" value="" style="endArrow=none;html=1;rounded=0;fontSize=20;entryX=0.5;entryY=1;entryDx=0;entryDy=0;exitX=0.5;exitY=0;exitDx=0;exitDy=0;" parent="1" source="kh_NFyaxqY6wScd9lxbq-3" target="kh_NFyaxqY6wScd9lxbq-1" edge="1">
          <mxGeometry width="50" height="50" relative="1" as="geometry">
            <mxPoint x="340" y="300" as="sourcePoint" />
            <mxPoint x="390" y="250" as="targetPoint" />
          </mxGeometry>
        </mxCell>
        <mxCell id="kh_NFyaxqY6wScd9lxbq-34" value="" style="endArrow=none;html=1;rounded=0;fontSize=20;entryX=0.5;entryY=1;entryDx=0;entryDy=0;exitX=0.5;exitY=0;exitDx=0;exitDy=0;" parent="1" source="kh_NFyaxqY6wScd9lxbq-9" target="kh_NFyaxqY6wScd9lxbq-3" edge="1">
          <mxGeometry width="50" height="50" relative="1" as="geometry">
            <mxPoint x="340" y="300" as="sourcePoint" />
            <mxPoint x="390" y="250" as="targetPoint" />
          </mxGeometry>
        </mxCell>
        <mxCell id="kh_NFyaxqY6wScd9lxbq-35" value="1" style="text;html=1;align=center;verticalAlign=middle;resizable=0;points=[];autosize=1;strokeColor=none;fillColor=none;fontSize=20;" parent="1" vertex="1">
          <mxGeometry x="301" y="250" width="30" height="30" as="geometry" />
        </mxCell>
        <mxCell id="kh_NFyaxqY6wScd9lxbq-36" value="1" style="text;html=1;align=center;verticalAlign=middle;resizable=0;points=[];autosize=1;strokeColor=none;fillColor=none;fontSize=20;" parent="1" vertex="1">
          <mxGeometry x="497" y="250" width="30" height="30" as="geometry" />
        </mxCell>
        <mxCell id="kh_NFyaxqY6wScd9lxbq-37" value="" style="endArrow=none;html=1;rounded=0;fontSize=20;entryX=0.5;entryY=1;entryDx=0;entryDy=0;exitX=0.5;exitY=0;exitDx=0;exitDy=0;" parent="1" source="kh_NFyaxqY6wScd9lxbq-39" target="kh_NFyaxqY6wScd9lxbq-23" edge="1">
          <mxGeometry width="50" height="50" relative="1" as="geometry">
            <mxPoint x="590" y="410" as="sourcePoint" />
            <mxPoint x="390" y="300" as="targetPoint" />
          </mxGeometry>
        </mxCell>
        <mxCell id="kh_NFyaxqY6wScd9lxbq-38" value="" style="endArrow=none;html=1;rounded=0;fontSize=20;entryX=0.5;entryY=1;entryDx=0;entryDy=0;exitX=0.5;exitY=0;exitDx=0;exitDy=0;" parent="1" source="kh_NFyaxqY6wScd9lxbq-16" target="kh_NFyaxqY6wScd9lxbq-22" edge="1">
          <mxGeometry width="50" height="50" relative="1" as="geometry">
            <mxPoint x="340" y="350" as="sourcePoint" />
            <mxPoint x="390" y="300" as="targetPoint" />
            <Array as="points" />
          </mxGeometry>
        </mxCell>
        <mxCell id="kh_NFyaxqY6wScd9lxbq-39" value="教师" style="rounded=0;whiteSpace=wrap;html=1;fontSize=20;" parent="1" vertex="1">
          <mxGeometry x="526" y="420" width="120" height="60" as="geometry" />
        </mxCell>
        <mxCell id="kh_NFyaxqY6wScd9lxbq-45" value="教师编号" style="ellipse;whiteSpace=wrap;html=1;fontSize=20;" parent="1" vertex="1">
          <mxGeometry x="727" y="350" width="100" height="70" as="geometry" />
        </mxCell>
        <mxCell id="kh_NFyaxqY6wScd9lxbq-46" value="&lt;div&gt;性别&lt;/div&gt;" style="ellipse;whiteSpace=wrap;html=1;fontSize=20;" parent="1" vertex="1">
          <mxGeometry x="730" y="430" width="100" height="70" as="geometry" />
        </mxCell>
        <mxCell id="kh_NFyaxqY6wScd9lxbq-48" value="" style="endArrow=none;html=1;rounded=0;fontSize=20;entryX=0;entryY=0.5;entryDx=0;entryDy=0;exitX=1;exitY=0.25;exitDx=0;exitDy=0;" parent="1" source="kh_NFyaxqY6wScd9lxbq-39" target="kh_NFyaxqY6wScd9lxbq-46" edge="1">
          <mxGeometry width="50" height="50" relative="1" as="geometry">
            <mxPoint x="500" y="410" as="sourcePoint" />
            <mxPoint x="550" y="360" as="targetPoint" />
            <Array as="points" />
          </mxGeometry>
        </mxCell>
        <mxCell id="kh_NFyaxqY6wScd9lxbq-49" value="" style="endArrow=none;html=1;rounded=0;fontSize=20;entryX=0;entryY=0.5;entryDx=0;entryDy=0;exitX=1;exitY=0.25;exitDx=0;exitDy=0;" parent="1" source="kh_NFyaxqY6wScd9lxbq-39" target="kh_NFyaxqY6wScd9lxbq-45" edge="1">
          <mxGeometry width="50" height="50" relative="1" as="geometry">
            <mxPoint x="660" y="450" as="sourcePoint" />
            <mxPoint x="710" y="400" as="targetPoint" />
          </mxGeometry>
        </mxCell>
        <mxCell id="kh_NFyaxqY6wScd9lxbq-50" value="" style="endArrow=none;html=1;rounded=0;fontSize=20;entryX=0;entryY=0.5;entryDx=0;entryDy=0;exitX=1;exitY=0.25;exitDx=0;exitDy=0;" parent="1" source="kh_NFyaxqY6wScd9lxbq-39" target="kh_NFyaxqY6wScd9lxbq-25" edge="1">
          <mxGeometry width="50" height="50" relative="1" as="geometry">
            <mxPoint x="500" y="410" as="sourcePoint" />
            <mxPoint x="550" y="360" as="targetPoint" />
          </mxGeometry>
        </mxCell>
        <mxCell id="kh_NFyaxqY6wScd9lxbq-51" value="&lt;div&gt;n&lt;/div&gt;" style="text;html=1;align=center;verticalAlign=middle;resizable=0;points=[];autosize=1;strokeColor=none;fillColor=none;fontSize=20;" parent="1" vertex="1">
          <mxGeometry x="280" y="370" width="30" height="30" as="geometry" />
        </mxCell>
        <mxCell id="kh_NFyaxqY6wScd9lxbq-52" value="&lt;div&gt;n&lt;/div&gt;" style="text;html=1;align=center;verticalAlign=middle;resizable=0;points=[];autosize=1;strokeColor=none;fillColor=none;fontSize=20;" parent="1" vertex="1">
          <mxGeometry x="527" y="370" width="30" height="30" as="geometry" />
        </mxCell>
        <mxCell id="kh_NFyaxqY6wScd9lxbq-60" value="" style="endArrow=none;html=1;rounded=0;fontSize=20;entryX=0.5;entryY=1;entryDx=0;entryDy=0;exitX=0.5;exitY=0;exitDx=0;exitDy=0;" parent="1" source="kh_NFyaxqY6wScd9lxbq-61" target="kh_NFyaxqY6wScd9lxbq-39" edge="1">
          <mxGeometry width="50" height="50" relative="1" as="geometry">
            <mxPoint x="560" y="550" as="sourcePoint" />
            <mxPoint x="530" y="470" as="targetPoint" />
          </mxGeometry>
        </mxCell>
        <mxCell id="kh_NFyaxqY6wScd9lxbq-61" value="教授" style="rhombus;whiteSpace=wrap;html=1;fontSize=20;" parent="1" vertex="1">
          <mxGeometry x="521" y="545" width="130" height="80" as="geometry" />
        </mxCell>
        <mxCell id="kh_NFyaxqY6wScd9lxbq-62" value="选课" style="rhombus;whiteSpace=wrap;html=1;fontSize=20;" parent="1" vertex="1">
          <mxGeometry x="185" y="545" width="130" height="80" as="geometry" />
        </mxCell>
        <mxCell id="kh_NFyaxqY6wScd9lxbq-63" value="" style="endArrow=none;html=1;rounded=0;fontSize=20;exitX=0.5;exitY=0;exitDx=0;exitDy=0;entryX=0.5;entryY=1;entryDx=0;entryDy=0;" parent="1" source="kh_NFyaxqY6wScd9lxbq-62" target="kh_NFyaxqY6wScd9lxbq-16" edge="1">
          <mxGeometry width="50" height="50" relative="1" as="geometry">
            <mxPoint x="480" y="520" as="sourcePoint" />
            <mxPoint x="530" y="470" as="targetPoint" />
          </mxGeometry>
        </mxCell>
        <mxCell id="kh_NFyaxqY6wScd9lxbq-64" value="m" style="text;html=1;align=center;verticalAlign=middle;resizable=0;points=[];autosize=1;strokeColor=none;fillColor=none;fontSize=20;" parent="1" vertex="1">
          <mxGeometry x="250" y="510" width="30" height="30" as="geometry" />
        </mxCell>
        <mxCell id="kh_NFyaxqY6wScd9lxbq-65" value="m" style="text;html=1;align=center;verticalAlign=middle;resizable=0;points=[];autosize=1;strokeColor=none;fillColor=none;fontSize=20;" parent="1" vertex="1">
          <mxGeometry x="557" y="510" width="30" height="30" as="geometry" />
        </mxCell>
        <mxCell id="kh_NFyaxqY6wScd9lxbq-66" value="课程" style="rounded=0;whiteSpace=wrap;html=1;fontSize=20;" parent="1" vertex="1">
          <mxGeometry x="353" y="680" width="120" height="60" as="geometry" />
        </mxCell>
        <mxCell id="kh_NFyaxqY6wScd9lxbq-67" value="" style="endArrow=none;html=1;rounded=0;fontSize=20;exitX=1;exitY=0;exitDx=0;exitDy=0;entryX=0.5;entryY=1;entryDx=0;entryDy=0;" parent="1" source="kh_NFyaxqY6wScd9lxbq-66" target="kh_NFyaxqY6wScd9lxbq-61" edge="1">
          <mxGeometry width="50" height="50" relative="1" as="geometry">
            <mxPoint x="480" y="490" as="sourcePoint" />
            <mxPoint x="530" y="440" as="targetPoint" />
          </mxGeometry>
        </mxCell>
        <mxCell id="kh_NFyaxqY6wScd9lxbq-68" value="1" style="text;html=1;align=center;verticalAlign=middle;resizable=0;points=[];autosize=1;strokeColor=none;fillColor=none;fontSize=20;" parent="1" vertex="1">
          <mxGeometry x="510" y="625" width="30" height="30" as="geometry" />
        </mxCell>
        <mxCell id="kh_NFyaxqY6wScd9lxbq-69" value="" style="endArrow=none;html=1;rounded=0;fontSize=20;exitX=0.5;exitY=1;exitDx=0;exitDy=0;entryX=0;entryY=0;entryDx=0;entryDy=0;" parent="1" source="kh_NFyaxqY6wScd9lxbq-62" target="kh_NFyaxqY6wScd9lxbq-66" edge="1">
          <mxGeometry width="50" height="50" relative="1" as="geometry">
            <mxPoint x="480" y="490" as="sourcePoint" />
            <mxPoint x="530" y="440" as="targetPoint" />
          </mxGeometry>
        </mxCell>
        <mxCell id="kh_NFyaxqY6wScd9lxbq-70" value="n" style="text;html=1;align=center;verticalAlign=middle;resizable=0;points=[];autosize=1;strokeColor=none;fillColor=none;fontSize=20;" parent="1" vertex="1">
          <mxGeometry x="295" y="625" width="30" height="30" as="geometry" />
        </mxCell>
        <mxCell id="kh_NFyaxqY6wScd9lxbq-72" value="学分" style="ellipse;whiteSpace=wrap;html=1;fontSize=20;" parent="1" vertex="1">
          <mxGeometry x="600" y="770" width="120" height="80" as="geometry" />
        </mxCell>
        <mxCell id="kh_NFyaxqY6wScd9lxbq-73" value="学时" style="ellipse;whiteSpace=wrap;html=1;fontSize=20;" parent="1" vertex="1">
          <mxGeometry x="437" y="770" width="120" height="80" as="geometry" />
        </mxCell>
        <mxCell id="kh_NFyaxqY6wScd9lxbq-74" value="课程编号" style="ellipse;whiteSpace=wrap;html=1;fontSize=20;" parent="1" vertex="1">
          <mxGeometry x="280" y="770" width="120" height="80" as="geometry" />
        </mxCell>
        <mxCell id="kh_NFyaxqY6wScd9lxbq-75" value="课程名" style="ellipse;whiteSpace=wrap;html=1;fontSize=20;" parent="1" vertex="1">
          <mxGeometry x="120" y="770" width="120" height="80" as="geometry" />
        </mxCell>
        <mxCell id="kh_NFyaxqY6wScd9lxbq-76" value="" style="endArrow=none;html=1;rounded=0;fontSize=20;entryX=0.5;entryY=0;entryDx=0;entryDy=0;" parent="1" target="kh_NFyaxqY6wScd9lxbq-72" edge="1">
          <mxGeometry width="50" height="50" relative="1" as="geometry">
            <mxPoint x="410" y="740" as="sourcePoint" />
            <mxPoint x="530" y="530" as="targetPoint" />
          </mxGeometry>
        </mxCell>
        <mxCell id="kh_NFyaxqY6wScd9lxbq-77" value="" style="endArrow=none;html=1;rounded=0;fontSize=20;entryX=0.5;entryY=1;entryDx=0;entryDy=0;exitX=0.5;exitY=0;exitDx=0;exitDy=0;" parent="1" source="kh_NFyaxqY6wScd9lxbq-73" target="kh_NFyaxqY6wScd9lxbq-66" edge="1">
          <mxGeometry width="50" height="50" relative="1" as="geometry">
            <mxPoint x="480" y="580" as="sourcePoint" />
            <mxPoint x="530" y="530" as="targetPoint" />
          </mxGeometry>
        </mxCell>
        <mxCell id="kh_NFyaxqY6wScd9lxbq-78" value="" style="endArrow=none;html=1;rounded=0;fontSize=20;exitX=0.5;exitY=0;exitDx=0;exitDy=0;entryX=0.5;entryY=1;entryDx=0;entryDy=0;" parent="1" source="kh_NFyaxqY6wScd9lxbq-74" target="kh_NFyaxqY6wScd9lxbq-66" edge="1">
          <mxGeometry width="50" height="50" relative="1" as="geometry">
            <mxPoint x="480" y="580" as="sourcePoint" />
            <mxPoint x="530" y="530" as="targetPoint" />
          </mxGeometry>
        </mxCell>
        <mxCell id="kh_NFyaxqY6wScd9lxbq-79" value="" style="endArrow=none;html=1;rounded=0;fontSize=20;exitX=0.5;exitY=0;exitDx=0;exitDy=0;" parent="1" source="kh_NFyaxqY6wScd9lxbq-75" edge="1">
          <mxGeometry width="50" height="50" relative="1" as="geometry">
            <mxPoint x="480" y="580" as="sourcePoint" />
            <mxPoint x="410" y="740" as="targetPoint" />
          </mxGeometry>
        </mxCell>
      </root>
    </mxGraphModel>
  </diagram>
</mxfile>
